# xmcd
#
# Track frame offsets: 
#        200
#        19172
#        36280
#        53075
#        71762
#        97977
#        115167
#        130872
#        149930
#        161840
#        175720
#        195382
#
# Disc length: 2849 seconds
#
# Revision: 4
# Processed by: cddbd v1.5.2PL0 Copyright (c) Steve Scherf et al.
# Submitted via: ExactAudioCopy v0.99pb3
#
DISCID=aa0b1f0c
DTITLE=John Dee and Fris - Country Girl
DYEAR=1993
DGENRE=Blues
TTITLE0=My Baby Is A Country Girl
TTITLE1=Sugar Mama
TTITLE2=I Can't Quit You Baby
TTITLE3=Diggin' My Potatoes
TTITLE4=I Hate To See The Evenin' Sun Go Down
TTITLE5=Big Boss Man
TTITLE6=My Little Machine
TTITLE7=Mama Got Mad 'Cause Papa Didn't Bring No Coffee Home
TTITLE8=Big Leg Woman
TTITLE9=Give Me Back That Wig I Bought You
TTITLE10=Careless Love
TTITLE11=Baby, You Don't Have To Go
EXTD=
EXTT0=
EXTT1=
EXTT2=
EXTT3=
EXTT4=
EXTT5=
EXTT6=
EXTT7=
EXTT8=
EXTT9=
EXTT10=
EXTT11=
PLAYORDER=
